<mxfile host="app.diagrams.net" modified="2023-01-26T16:53:35.119Z" agent="5.0 (Windows NT 10.0; Win64; x64) AppleWebKit/537.36 (KHTML, like Gecko) Chrome/109.0.0.0 Safari/537.36" etag="PphxRpn63q9AmJyw5PFy" version="20.8.11" type="github">
  <diagram id="a1ukTIARGKiZo2ybFdTu" name="Pagina-1">
    <mxGraphModel dx="2501" dy="1933" grid="1" gridSize="10" guides="1" tooltips="1" connect="1" arrows="1" fold="1" page="1" pageScale="1" pageWidth="827" pageHeight="1169" math="0" shadow="0">
      <root>
        <mxCell id="0" />
        <mxCell id="1" parent="0" />
        <mxCell id="NHYo-Zj5u36uB8yAqysU-1" value="" style="rounded=0;whiteSpace=wrap;html=1;" parent="1" vertex="1">
          <mxGeometry x="-320" y="40" width="1040" height="330" as="geometry" />
        </mxCell>
        <mxCell id="NHYo-Zj5u36uB8yAqysU-2" value="" style="whiteSpace=wrap;html=1;aspect=fixed;" parent="1" vertex="1">
          <mxGeometry x="440" y="80" width="240" height="240" as="geometry" />
        </mxCell>
        <mxCell id="NHYo-Zj5u36uB8yAqysU-3" value="" style="whiteSpace=wrap;html=1;aspect=fixed;" parent="1" vertex="1">
          <mxGeometry x="-280" y="80" width="240" height="240" as="geometry" />
        </mxCell>
        <mxCell id="NHYo-Zj5u36uB8yAqysU-4" value="Web VPC" style="text;html=1;strokeColor=none;fillColor=none;align=center;verticalAlign=middle;whiteSpace=wrap;rounded=0;" parent="1" vertex="1">
          <mxGeometry x="-310" y="10" width="60" height="30" as="geometry" />
        </mxCell>
        <mxCell id="NHYo-Zj5u36uB8yAqysU-6" value="" style="endArrow=none;dashed=1;html=1;dashPattern=1 3;strokeWidth=2;rounded=0;" parent="1" edge="1">
          <mxGeometry width="50" height="50" relative="1" as="geometry">
            <mxPoint x="760" y="770" as="sourcePoint" />
            <mxPoint x="760" as="targetPoint" />
          </mxGeometry>
        </mxCell>
        <mxCell id="NHYo-Zj5u36uB8yAqysU-7" value="" style="endArrow=none;dashed=1;html=1;dashPattern=1 3;strokeWidth=2;rounded=0;" parent="1" edge="1">
          <mxGeometry width="50" height="50" relative="1" as="geometry">
            <mxPoint x="-360" y="770" as="sourcePoint" />
            <mxPoint x="-360" as="targetPoint" />
          </mxGeometry>
        </mxCell>
        <mxCell id="NHYo-Zj5u36uB8yAqysU-8" value="" style="endArrow=none;dashed=1;html=1;dashPattern=1 3;strokeWidth=2;rounded=0;startArrow=none;" parent="1" source="NHYo-Zj5u36uB8yAqysU-65" edge="1">
          <mxGeometry width="50" height="50" relative="1" as="geometry">
            <mxPoint x="-360" as="sourcePoint" />
            <mxPoint x="760" as="targetPoint" />
          </mxGeometry>
        </mxCell>
        <mxCell id="NHYo-Zj5u36uB8yAqysU-9" value="Region eu-central-1" style="text;html=1;strokeColor=none;fillColor=none;align=center;verticalAlign=middle;whiteSpace=wrap;rounded=0;" parent="1" vertex="1">
          <mxGeometry x="-340" y="-40" width="140" height="30" as="geometry" />
        </mxCell>
        <mxCell id="NHYo-Zj5u36uB8yAqysU-10" value="" style="whiteSpace=wrap;html=1;aspect=fixed;" parent="1" vertex="1">
          <mxGeometry x="70" y="75" width="245" height="245" as="geometry" />
        </mxCell>
        <mxCell id="NHYo-Zj5u36uB8yAqysU-11" value="Availability Zone A" style="text;html=1;strokeColor=none;fillColor=none;align=center;verticalAlign=middle;whiteSpace=wrap;rounded=0;" parent="1" vertex="1">
          <mxGeometry x="-280" y="50" width="240" height="30" as="geometry" />
        </mxCell>
        <mxCell id="NHYo-Zj5u36uB8yAqysU-12" value="Availability Zone B" style="text;html=1;strokeColor=none;fillColor=none;align=center;verticalAlign=middle;whiteSpace=wrap;rounded=0;" parent="1" vertex="1">
          <mxGeometry x="70" y="45" width="240" height="30" as="geometry" />
        </mxCell>
        <mxCell id="NHYo-Zj5u36uB8yAqysU-13" value="Availability Zone C" style="text;html=1;strokeColor=none;fillColor=none;align=center;verticalAlign=middle;whiteSpace=wrap;rounded=0;" parent="1" vertex="1">
          <mxGeometry x="440" y="50" width="240" height="30" as="geometry" />
        </mxCell>
        <mxCell id="NHYo-Zj5u36uB8yAqysU-14" value="" style="rounded=0;whiteSpace=wrap;html=1;" parent="1" vertex="1">
          <mxGeometry x="-270" y="100" width="220" height="60" as="geometry" />
        </mxCell>
        <mxCell id="NHYo-Zj5u36uB8yAqysU-15" value="" style="rounded=0;whiteSpace=wrap;html=1;" parent="1" vertex="1">
          <mxGeometry x="-270" y="240" width="220" height="60" as="geometry" />
        </mxCell>
        <mxCell id="NHYo-Zj5u36uB8yAqysU-16" value="" style="rounded=0;whiteSpace=wrap;html=1;" parent="1" vertex="1">
          <mxGeometry x="82.5" y="100" width="220" height="60" as="geometry" />
        </mxCell>
        <mxCell id="NHYo-Zj5u36uB8yAqysU-17" value="" style="rounded=0;whiteSpace=wrap;html=1;" parent="1" vertex="1">
          <mxGeometry x="82.5" y="240" width="220" height="60" as="geometry" />
        </mxCell>
        <mxCell id="NHYo-Zj5u36uB8yAqysU-18" value="" style="rounded=0;whiteSpace=wrap;html=1;" parent="1" vertex="1">
          <mxGeometry x="450" y="100" width="220" height="60" as="geometry" />
        </mxCell>
        <mxCell id="NHYo-Zj5u36uB8yAqysU-19" value="" style="rounded=0;whiteSpace=wrap;html=1;" parent="1" vertex="1">
          <mxGeometry x="450" y="240" width="220" height="60" as="geometry" />
        </mxCell>
        <mxCell id="NHYo-Zj5u36uB8yAqysU-20" value="Public Subnet" style="text;html=1;strokeColor=none;fillColor=none;align=center;verticalAlign=middle;whiteSpace=wrap;rounded=0;" parent="1" vertex="1">
          <mxGeometry x="-270" y="100" width="150" height="30" as="geometry" />
        </mxCell>
        <mxCell id="NHYo-Zj5u36uB8yAqysU-21" value="Public Subnet" style="text;html=1;strokeColor=none;fillColor=none;align=center;verticalAlign=middle;whiteSpace=wrap;rounded=0;" parent="1" vertex="1">
          <mxGeometry x="82.5" y="100" width="150" height="30" as="geometry" />
        </mxCell>
        <mxCell id="NHYo-Zj5u36uB8yAqysU-22" value="Public Subnet" style="text;html=1;strokeColor=none;fillColor=none;align=center;verticalAlign=middle;whiteSpace=wrap;rounded=0;" parent="1" vertex="1">
          <mxGeometry x="450" y="100" width="150" height="30" as="geometry" />
        </mxCell>
        <mxCell id="NHYo-Zj5u36uB8yAqysU-23" value="Private Subnet" style="text;html=1;strokeColor=none;fillColor=none;align=center;verticalAlign=middle;whiteSpace=wrap;rounded=0;" parent="1" vertex="1">
          <mxGeometry x="-270" y="240" width="130" height="30" as="geometry" />
        </mxCell>
        <mxCell id="NHYo-Zj5u36uB8yAqysU-24" value="Private Subnet" style="text;html=1;strokeColor=none;fillColor=none;align=center;verticalAlign=middle;whiteSpace=wrap;rounded=0;" parent="1" vertex="1">
          <mxGeometry x="82.5" y="240" width="130" height="30" as="geometry" />
        </mxCell>
        <mxCell id="NHYo-Zj5u36uB8yAqysU-25" value="Private Subnet" style="text;html=1;strokeColor=none;fillColor=none;align=center;verticalAlign=middle;whiteSpace=wrap;rounded=0;" parent="1" vertex="1">
          <mxGeometry x="450" y="240" width="130" height="30" as="geometry" />
        </mxCell>
        <mxCell id="NHYo-Zj5u36uB8yAqysU-26" value="" style="sketch=0;aspect=fixed;html=1;points=[];align=center;image;fontSize=12;image=img/lib/mscae/Network_Security_Groups_Classic.svg;" parent="1" vertex="1">
          <mxGeometry x="541.5" y="170" width="37" height="50" as="geometry" />
        </mxCell>
        <mxCell id="NHYo-Zj5u36uB8yAqysU-27" value="" style="sketch=0;aspect=fixed;html=1;points=[];align=center;image;fontSize=12;image=img/lib/mscae/Network_Security_Groups_Classic.svg;" parent="1" vertex="1">
          <mxGeometry x="171.5" y="170" width="37" height="50" as="geometry" />
        </mxCell>
        <mxCell id="NHYo-Zj5u36uB8yAqysU-28" value="" style="sketch=0;aspect=fixed;html=1;points=[];align=center;image;fontSize=12;image=img/lib/mscae/Network_Security_Groups_Classic.svg;" parent="1" vertex="1">
          <mxGeometry x="-178.5" y="172.5" width="37" height="50" as="geometry" />
        </mxCell>
        <mxCell id="NHYo-Zj5u36uB8yAqysU-29" value="" style="ellipse;whiteSpace=wrap;html=1;aspect=fixed;" parent="1" vertex="1">
          <mxGeometry x="-130" y="230" width="80" height="80" as="geometry" />
        </mxCell>
        <mxCell id="NHYo-Zj5u36uB8yAqysU-30" value="Webserver" style="text;html=1;strokeColor=none;fillColor=none;align=center;verticalAlign=middle;whiteSpace=wrap;rounded=0;" parent="1" vertex="1">
          <mxGeometry x="-120" y="240" width="60" height="57.5" as="geometry" />
        </mxCell>
        <mxCell id="NHYo-Zj5u36uB8yAqysU-32" value="Webserver" style="ellipse;whiteSpace=wrap;html=1;aspect=fixed;" parent="1" vertex="1">
          <mxGeometry x="222.5" y="233.75" width="80" height="80" as="geometry" />
        </mxCell>
        <mxCell id="NHYo-Zj5u36uB8yAqysU-33" value="Webserver" style="ellipse;whiteSpace=wrap;html=1;aspect=fixed;" parent="1" vertex="1">
          <mxGeometry x="590" y="230" width="80" height="80" as="geometry" />
        </mxCell>
        <mxCell id="NHYo-Zj5u36uB8yAqysU-36" value="" style="endArrow=none;dashed=1;html=1;dashPattern=1 3;strokeWidth=2;rounded=0;" parent="1" edge="1">
          <mxGeometry width="50" height="50" relative="1" as="geometry">
            <mxPoint x="-360" y="960" as="sourcePoint" />
            <mxPoint x="-360" y="760" as="targetPoint" />
          </mxGeometry>
        </mxCell>
        <mxCell id="NHYo-Zj5u36uB8yAqysU-37" value="" style="endArrow=none;dashed=1;html=1;dashPattern=1 3;strokeWidth=2;rounded=0;" parent="1" edge="1">
          <mxGeometry width="50" height="50" relative="1" as="geometry">
            <mxPoint x="760" y="960" as="sourcePoint" />
            <mxPoint x="760" y="760" as="targetPoint" />
          </mxGeometry>
        </mxCell>
        <mxCell id="NHYo-Zj5u36uB8yAqysU-38" value="" style="endArrow=none;dashed=1;html=1;dashPattern=1 3;strokeWidth=2;rounded=0;" parent="1" edge="1">
          <mxGeometry width="50" height="50" relative="1" as="geometry">
            <mxPoint x="-362" y="960" as="sourcePoint" />
            <mxPoint x="758" y="960" as="targetPoint" />
          </mxGeometry>
        </mxCell>
        <mxCell id="NHYo-Zj5u36uB8yAqysU-39" value="Region eu-central-1" style="text;html=1;strokeColor=none;fillColor=none;align=center;verticalAlign=middle;whiteSpace=wrap;rounded=0;" parent="1" vertex="1">
          <mxGeometry x="-320" y="490" width="140" height="30" as="geometry" />
        </mxCell>
        <mxCell id="NHYo-Zj5u36uB8yAqysU-40" value="" style="rounded=0;whiteSpace=wrap;html=1;" parent="1" vertex="1">
          <mxGeometry x="-320" y="550" width="1040" height="360" as="geometry" />
        </mxCell>
        <mxCell id="NHYo-Zj5u36uB8yAqysU-42" value="" style="whiteSpace=wrap;html=1;aspect=fixed;" parent="1" vertex="1">
          <mxGeometry x="440" y="590" width="240" height="240" as="geometry" />
        </mxCell>
        <mxCell id="NHYo-Zj5u36uB8yAqysU-43" value="Availability Zone A" style="text;html=1;strokeColor=none;fillColor=none;align=center;verticalAlign=middle;whiteSpace=wrap;rounded=0;" parent="1" vertex="1">
          <mxGeometry x="-330" y="570" width="240" height="30" as="geometry" />
        </mxCell>
        <mxCell id="NHYo-Zj5u36uB8yAqysU-44" value="Availability Zone B" style="text;html=1;strokeColor=none;fillColor=none;align=center;verticalAlign=middle;whiteSpace=wrap;rounded=0;" parent="1" vertex="1">
          <mxGeometry x="440" y="555" width="240" height="30" as="geometry" />
        </mxCell>
        <mxCell id="NHYo-Zj5u36uB8yAqysU-45" value="Public Subnet" style="rounded=0;whiteSpace=wrap;html=1;" parent="1" vertex="1">
          <mxGeometry x="-260" y="620" width="220" height="160" as="geometry" />
        </mxCell>
        <mxCell id="NHYo-Zj5u36uB8yAqysU-47" value="Public Subnet" style="rounded=0;whiteSpace=wrap;html=1;" parent="1" vertex="1">
          <mxGeometry x="450" y="600" width="220" height="160" as="geometry" />
        </mxCell>
        <mxCell id="NHYo-Zj5u36uB8yAqysU-50" value="Admin server" style="ellipse;whiteSpace=wrap;html=1;aspect=fixed;" parent="1" vertex="1">
          <mxGeometry x="-120" y="710" width="80" height="80" as="geometry" />
        </mxCell>
        <mxCell id="NHYo-Zj5u36uB8yAqysU-51" value="Admin VPC" style="text;html=1;align=center;verticalAlign=middle;resizable=0;points=[];autosize=1;strokeColor=none;fillColor=none;" parent="1" vertex="1">
          <mxGeometry x="-310" y="520" width="90" height="30" as="geometry" />
        </mxCell>
        <mxCell id="NHYo-Zj5u36uB8yAqysU-54" value="" style="sketch=0;points=[[0,0,0],[0.25,0,0],[0.5,0,0],[0.75,0,0],[1,0,0],[0,1,0],[0.25,1,0],[0.5,1,0],[0.75,1,0],[1,1,0],[0,0.25,0],[0,0.5,0],[0,0.75,0],[1,0.25,0],[1,0.5,0],[1,0.75,0]];outlineConnect=0;fontColor=#232F3E;gradientColor=#F54749;gradientDirection=north;fillColor=#C7131F;strokeColor=#ffffff;dashed=0;verticalLabelPosition=bottom;verticalAlign=top;align=center;html=1;fontSize=12;fontStyle=0;aspect=fixed;shape=mxgraph.aws4.resourceIcon;resIcon=mxgraph.aws4.key_management_service;" parent="1" vertex="1">
          <mxGeometry x="-90" y="-118" width="78" height="78" as="geometry" />
        </mxCell>
        <mxCell id="NHYo-Zj5u36uB8yAqysU-55" value="KMS" style="text;html=1;align=center;verticalAlign=middle;resizable=0;points=[];autosize=1;strokeColor=none;fillColor=none;" parent="1" vertex="1">
          <mxGeometry x="-76" y="-148" width="50" height="30" as="geometry" />
        </mxCell>
        <mxCell id="gFEl4hhXvVX96qredD_t-3" style="edgeStyle=orthogonalEdgeStyle;rounded=0;orthogonalLoop=1;jettySize=auto;html=1;" parent="1" source="NHYo-Zj5u36uB8yAqysU-56" edge="1">
          <mxGeometry relative="1" as="geometry">
            <mxPoint x="-130" y="270" as="targetPoint" />
            <Array as="points">
              <mxPoint x="-400" y="-79" />
              <mxPoint x="-400" y="200" />
            </Array>
          </mxGeometry>
        </mxCell>
        <mxCell id="NHYo-Zj5u36uB8yAqysU-56" value="" style="sketch=0;points=[[0,0,0],[0.25,0,0],[0.5,0,0],[0.75,0,0],[1,0,0],[0,1,0],[0.25,1,0],[0.5,1,0],[0.75,1,0],[1,1,0],[0,0.25,0],[0,0.5,0],[0,0.75,0],[1,0.25,0],[1,0.5,0],[1,0.75,0]];outlineConnect=0;fontColor=#232F3E;gradientColor=#60A337;gradientDirection=north;fillColor=#277116;strokeColor=#ffffff;dashed=0;verticalLabelPosition=bottom;verticalAlign=top;align=center;html=1;fontSize=12;fontStyle=0;aspect=fixed;shape=mxgraph.aws4.resourceIcon;resIcon=mxgraph.aws4.s3;" parent="1" vertex="1">
          <mxGeometry x="-360" y="-118" width="78" height="78" as="geometry" />
        </mxCell>
        <mxCell id="NHYo-Zj5u36uB8yAqysU-57" value="S3 storage" style="text;html=1;align=center;verticalAlign=middle;resizable=0;points=[];autosize=1;strokeColor=none;fillColor=none;" parent="1" vertex="1">
          <mxGeometry x="-362" y="-148" width="80" height="30" as="geometry" />
        </mxCell>
        <mxCell id="NHYo-Zj5u36uB8yAqysU-63" style="edgeStyle=orthogonalEdgeStyle;rounded=0;orthogonalLoop=1;jettySize=auto;html=1;entryX=0.491;entryY=1.006;entryDx=0;entryDy=0;entryPerimeter=0;" parent="1" source="NHYo-Zj5u36uB8yAqysU-59" target="NHYo-Zj5u36uB8yAqysU-1" edge="1">
          <mxGeometry relative="1" as="geometry">
            <mxPoint x="190" y="408" as="targetPoint" />
          </mxGeometry>
        </mxCell>
        <mxCell id="gFEl4hhXvVX96qredD_t-5" style="edgeStyle=orthogonalEdgeStyle;rounded=0;orthogonalLoop=1;jettySize=auto;html=1;entryX=0.49;entryY=0.003;entryDx=0;entryDy=0;entryPerimeter=0;" parent="1" source="NHYo-Zj5u36uB8yAqysU-59" target="NHYo-Zj5u36uB8yAqysU-40" edge="1">
          <mxGeometry relative="1" as="geometry" />
        </mxCell>
        <mxCell id="NHYo-Zj5u36uB8yAqysU-59" value="" style="sketch=0;outlineConnect=0;fontColor=#232F3E;gradientColor=none;fillColor=#4D27AA;strokeColor=none;dashed=0;verticalLabelPosition=bottom;verticalAlign=top;align=center;html=1;fontSize=12;fontStyle=0;aspect=fixed;pointerEvents=1;shape=mxgraph.aws4.peering;" parent="1" vertex="1">
          <mxGeometry x="151" y="420" width="78" height="78" as="geometry" />
        </mxCell>
        <mxCell id="NHYo-Zj5u36uB8yAqysU-64" value="VPC Peering Connection" style="text;html=1;align=center;verticalAlign=middle;resizable=0;points=[];autosize=1;strokeColor=none;fillColor=none;" parent="1" vertex="1">
          <mxGeometry x="242.5" y="444" width="160" height="30" as="geometry" />
        </mxCell>
        <mxCell id="NHYo-Zj5u36uB8yAqysU-65" value="" style="outlineConnect=0;dashed=0;verticalLabelPosition=bottom;verticalAlign=top;align=center;html=1;shape=mxgraph.aws3.application_load_balancer;fillColor=#F58534;gradientColor=none;" parent="1" vertex="1">
          <mxGeometry x="130" y="-40" width="69" height="72" as="geometry" />
        </mxCell>
        <mxCell id="NHYo-Zj5u36uB8yAqysU-66" value="" style="endArrow=none;dashed=1;html=1;dashPattern=1 3;strokeWidth=2;rounded=0;" parent="1" target="NHYo-Zj5u36uB8yAqysU-65" edge="1">
          <mxGeometry width="50" height="50" relative="1" as="geometry">
            <mxPoint x="-360" as="sourcePoint" />
            <mxPoint x="760" as="targetPoint" />
          </mxGeometry>
        </mxCell>
        <mxCell id="NHYo-Zj5u36uB8yAqysU-67" value="Application Load Balancer" style="text;html=1;align=center;verticalAlign=middle;resizable=0;points=[];autosize=1;strokeColor=none;fillColor=none;" parent="1" vertex="1">
          <mxGeometry x="212.5" y="-40" width="160" height="30" as="geometry" />
        </mxCell>
        <mxCell id="NHYo-Zj5u36uB8yAqysU-69" value="SSL Certificate" style="text;html=1;align=center;verticalAlign=middle;resizable=0;points=[];autosize=1;strokeColor=none;fillColor=none;" parent="1" vertex="1">
          <mxGeometry x="242.5" y="-163" width="100" height="30" as="geometry" />
        </mxCell>
        <mxCell id="NHYo-Zj5u36uB8yAqysU-70" value="" style="outlineConnect=0;dashed=0;verticalLabelPosition=bottom;verticalAlign=top;align=center;html=1;shape=mxgraph.aws3.certificate_manager_2;fillColor=#759C3E;gradientColor=none;" parent="1" vertex="1">
          <mxGeometry x="255.75" y="-130" width="73.5" height="63" as="geometry" />
        </mxCell>
        <mxCell id="NHYo-Zj5u36uB8yAqysU-72" style="edgeStyle=orthogonalEdgeStyle;rounded=0;orthogonalLoop=1;jettySize=auto;html=1;entryX=0.5;entryY=0;entryDx=0;entryDy=0;entryPerimeter=0;" parent="1" source="NHYo-Zj5u36uB8yAqysU-71" target="NHYo-Zj5u36uB8yAqysU-65" edge="1">
          <mxGeometry relative="1" as="geometry" />
        </mxCell>
        <mxCell id="NHYo-Zj5u36uB8yAqysU-71" value="Client" style="sketch=0;outlineConnect=0;fontColor=#232F3E;gradientColor=none;strokeColor=#232F3E;fillColor=#ffffff;dashed=0;verticalLabelPosition=bottom;verticalAlign=top;align=center;html=1;fontSize=12;fontStyle=0;aspect=fixed;shape=mxgraph.aws4.resourceIcon;resIcon=mxgraph.aws4.client;" parent="1" vertex="1">
          <mxGeometry x="134.5" y="-178" width="60" height="60" as="geometry" />
        </mxCell>
        <mxCell id="NHYo-Zj5u36uB8yAqysU-76" value="Trusted User" style="text;html=1;align=center;verticalAlign=middle;resizable=0;points=[];autosize=1;strokeColor=none;fillColor=none;" parent="1" vertex="1">
          <mxGeometry x="-315" y="370" width="90" height="30" as="geometry" />
        </mxCell>
        <mxCell id="gFEl4hhXvVX96qredD_t-6" value="CIDR-block: 10.10.10.0/24" style="text;html=1;align=center;verticalAlign=middle;resizable=0;points=[];autosize=1;strokeColor=none;fillColor=none;" parent="1" vertex="1">
          <mxGeometry x="-250" y="10" width="160" height="30" as="geometry" />
        </mxCell>
        <mxCell id="gFEl4hhXvVX96qredD_t-7" value="CIDR-block: 10.20.20.0/24" style="text;html=1;align=center;verticalAlign=middle;resizable=0;points=[];autosize=1;strokeColor=none;fillColor=none;" parent="1" vertex="1">
          <mxGeometry x="-25.5" y="520" width="160" height="30" as="geometry" />
        </mxCell>
        <mxCell id="NHYo-Zj5u36uB8yAqysU-41" value="" style="whiteSpace=wrap;html=1;aspect=fixed;" parent="1" vertex="1">
          <mxGeometry x="-270" y="600" width="240" height="240" as="geometry" />
        </mxCell>
        <mxCell id="jIk946TjcLPUNEosdjuE-3" value="Public Subnet" style="rounded=0;whiteSpace=wrap;html=1;" parent="1" vertex="1">
          <mxGeometry x="-260" y="610" width="220" height="160" as="geometry" />
        </mxCell>
        <mxCell id="jIk946TjcLPUNEosdjuE-4" value="" style="sketch=0;aspect=fixed;html=1;points=[];align=center;image;fontSize=12;image=img/lib/mscae/Network_Security_Groups_Classic.svg;" parent="1" vertex="1">
          <mxGeometry x="-167" y="780" width="37" height="50" as="geometry" />
        </mxCell>
        <mxCell id="jIk946TjcLPUNEosdjuE-5" value="" style="sketch=0;aspect=fixed;html=1;points=[];align=center;image;fontSize=12;image=img/lib/mscae/Network_Security_Groups_Classic.svg;" parent="1" vertex="1">
          <mxGeometry x="553" y="770" width="37" height="50" as="geometry" />
        </mxCell>
        <mxCell id="jIk946TjcLPUNEosdjuE-6" value="Admin server" style="ellipse;whiteSpace=wrap;html=1;aspect=fixed;" parent="1" vertex="1">
          <mxGeometry x="-120" y="690" width="80" height="80" as="geometry" />
        </mxCell>
        <mxCell id="jIk946TjcLPUNEosdjuE-9" style="edgeStyle=orthogonalEdgeStyle;rounded=0;orthogonalLoop=1;jettySize=auto;html=1;entryX=1;entryY=0;entryDx=0;entryDy=0;" parent="1" source="jIk946TjcLPUNEosdjuE-7" target="jIk946TjcLPUNEosdjuE-6" edge="1">
          <mxGeometry relative="1" as="geometry">
            <mxPoint x="-60" y="520" as="targetPoint" />
          </mxGeometry>
        </mxCell>
        <mxCell id="jIk946TjcLPUNEosdjuE-7" value="" style="aspect=fixed;html=1;points=[];align=center;image;fontSize=12;image=img/lib/azure2/management_governance/User_Privacy.svg;" parent="1" vertex="1">
          <mxGeometry x="-297" y="406" width="79.06" height="84" as="geometry" />
        </mxCell>
        <mxCell id="AWmQnm6RcJkko_s7bZ5F-1" value="" style="sketch=0;outlineConnect=0;fontColor=#232F3E;gradientColor=none;fillColor=#D45B07;strokeColor=none;dashed=0;verticalLabelPosition=bottom;verticalAlign=top;align=center;html=1;fontSize=12;fontStyle=0;aspect=fixed;pointerEvents=1;shape=mxgraph.aws4.auto_scaling2;" vertex="1" parent="1">
          <mxGeometry x="329.25" y="50" width="87.25" height="87.25" as="geometry" />
        </mxCell>
        <mxCell id="AWmQnm6RcJkko_s7bZ5F-6" value="Autoscaling Group" style="text;html=1;align=center;verticalAlign=middle;resizable=0;points=[];autosize=1;strokeColor=none;fillColor=none;" vertex="1" parent="1">
          <mxGeometry x="315" y="130" width="120" height="30" as="geometry" />
        </mxCell>
      </root>
    </mxGraphModel>
  </diagram>
</mxfile>
